<svg xmlns="http://www.w3.org/2000/svg" width="33.316" height="33.318" viewBox="0 0 33.316 33.318"><defs><style>.a{fill:#fff;}</style></defs><g transform="translate(-0.014)"><g transform="translate(0.014)"><g transform="translate(0)"><path class="a" d="M312.456,154.361a1.4,1.4,0,0,0-.3-.453l-4.163-4.163a1.388,1.388,0,1,0-1.963,1.963l1.795,1.795h-7.755a1.388,1.388,0,1,0,0,2.776h7.755l-1.795,1.795a1.388,1.388,0,1,0,1.963,1.963l4.163-4.163a1.374,1.374,0,0,0,.3-.453A1.39,1.39,0,0,0,312.456,154.361Z" transform="translate(-279.245 -139.621)"/><path class="a" d="M23.614,19.435a1.388,1.388,0,0,0-1.388,1.388v6.941H16.673V5.553a1.39,1.39,0,0,0-.99-1.33L10.862,2.777H22.226V9.718a1.388,1.388,0,0,0,2.776,0V1.388A1.388,1.388,0,0,0,23.614,0H1.4a1.237,1.237,0,0,0-.143.026A1.371,1.371,0,0,0,.671.232C.64.251.6.253.574.275.562.283.558.3.547.307A1.375,1.375,0,0,0,.178.745,1.134,1.134,0,0,0,.139.862a1.317,1.317,0,0,0-.11.325.864.864,0,0,0,0,.121c0,.028-.019.053-.019.08V29.153A1.387,1.387,0,0,0,1.13,30.514L15.013,33.29a1.292,1.292,0,0,0,.272.028,1.389,1.389,0,0,0,1.388-1.388V30.541h6.941A1.388,1.388,0,0,0,25,29.153v-8.33A1.388,1.388,0,0,0,23.614,19.435Z" transform="translate(-0.014)"/></g></g></g></svg>