<svg id="Grupo_1529" data-name="Grupo 1529" xmlns="http://www.w3.org/2000/svg" xmlns:xlink="http://www.w3.org/1999/xlink" width="199.781" height="198.354" viewBox="0 0 199.781 198.354">
  <defs>
    <clipPath id="clip-path">
      <path id="Caminho_556" data-name="Caminho 556" d="M1824.055,626.859c-55.169,0-99.891,44.4-99.891,99.176s44.722,99.177,99.891,99.177,99.891-44.4,99.891-99.177S1879.223,626.859,1824.055,626.859Zm.622,150.191c-27.4,0-49.618-22.437-49.618-50.115s22.215-50.115,49.618-50.115,49.619,22.437,49.619,50.115S1852.082,777.05,1824.677,777.05Z" transform="translate(-1724.164 -626.859)" fill="none"/>
    </clipPath>
    <linearGradient id="linear-gradient" x1="0.5" y1="1" x2="0.5" gradientUnits="objectBoundingBox">
      <stop offset="0" stop-color="#fff" stop-opacity="0"/>
      <stop offset="1" stop-opacity="0.302"/>
    </linearGradient>
    <linearGradient id="linear-gradient-2" x1="-5.126" y1="3.782" x2="-5.126" y2="2.403" xlink:href="#linear-gradient"/>
    <linearGradient id="linear-gradient-3" x1="0.504" y1="0.017" x2="1.48" y2="0.017" xlink:href="#linear-gradient"/>
    <linearGradient id="linear-gradient-4" x1="0.109" y1="-0.212" x2="1.083" y2="-0.212" xlink:href="#linear-gradient"/>
  </defs>
  <g id="Grupo_1526" data-name="Grupo 1526" transform="translate(1.613 1.613)">
    <path id="Caminho_546" data-name="Caminho 546" d="M1877.8,644.354a21.589,21.589,0,0,1,2.1,10.214c-.512,19.407-9.725,33.457-16.014,40.836a50.856,50.856,0,1,1-5.19-5.76,138.421,138.421,0,0,0-5.289-37.412c-3.946-13.808-9.286-20.02-13.6-22.793a98.284,98.284,0,1,0,37.991,14.915Z" transform="translate(-1725.403 -628.098)" fill="#fff"/>
  </g>
  <g id="Grupo_1528" data-name="Grupo 1528">
    <g id="Grupo_1527" data-name="Grupo 1527" clip-path="url(#clip-path)">
      <path id="Caminho_547" data-name="Caminho 547" d="M1777.965,682.836s-41.9,29.131-43.447,79.445,94.65,46.342,94.65,46.342-26.378,3.973-41.894-42.37S1777.965,682.836,1777.965,682.836Z" transform="translate(-1721.046 -609.971)" fill="#ffd128"/>
      <path id="Caminho_548" data-name="Caminho 548" d="M1778.237,682.836s-41.894,29.131-43.445,79.445,94.65,46.342,94.65,46.342-26.378,3.973-41.894-42.37S1778.237,682.836,1778.237,682.836Z" transform="translate(-1720.963 -609.971)" fill="url(#linear-gradient)"/>
      <path id="Caminho_549" data-name="Caminho 549" d="M1828.506,628.424s14.112,4.284,18.25,27.16,3.322,34.8,3.322,34.8-12.225-8.618-16.05-9.6S1756,644.79,1756,644.79,1782.665,622.794,1828.506,628.424Z" transform="translate(-1714.559 -626.665)" fill="#4a148c"/>
      <path id="Caminho_550" data-name="Caminho 550" d="M1846.063,677.991s-29.108-35.467-79.383-36.781-46.308,80.129-46.308,80.129-3.969-22.331,42.339-35.466S1846.063,677.991,1846.063,677.991Z" transform="translate(-1725.334 -622.534)" fill="#00bcd4"/>
      <path id="Caminho_551" data-name="Caminho 551" d="M1810.606,668.173s-45.6-6.6-83.538,26.184,20.444,90.126,20.444,90.126-18.131-13.79,7.043-54.553S1810.606,668.173,1810.606,668.173Z" transform="translate(-1727.154 -614.559)" fill="#00ae5c"/>
      <path id="Caminho_552" data-name="Caminho 552" d="M1765.2,712.533s-4.678,45.514,29.936,81.739,89.813-24.15,89.813-24.15-13.1,18.577-55.2-4.644S1765.2,712.533,1765.2,712.533Z" transform="translate(-1711.847 -601.012)" fill="#e65100"/>
      <path id="Caminho_553" data-name="Caminho 553" d="M1765.153,715.617s-3.106,46.767,33.432,81.083,90.508-31.437,90.508-31.437-12.653,19.937-56.334-.551S1765.153,715.617,1765.153,715.617Z" transform="translate(-1711.818 -600.081)" fill="url(#linear-gradient-2)"/>
      <path id="Caminho_554" data-name="Caminho 554" d="M1810.532,668.1s-45.6-6.594-83.538,26.185,20.443,90.126,20.443,90.126-18.131-13.79,7.045-54.553S1810.532,668.1,1810.532,668.1Z" transform="translate(-1727.177 -614.58)" fill="url(#linear-gradient-3)"/>
      <path id="Caminho_555" data-name="Caminho 555" d="M1849.55,680.64s-28.471-36.975-79.535-39.871-49.6,80.057-49.6,80.057-3.331-22.834,44.154-34.757S1849.55,680.64,1849.55,680.64Z" transform="translate(-1725.309 -622.685)" fill="url(#linear-gradient-4)"/>
    </g>
  </g>
</svg>
